# This file uses centimeters as units for non-parametric coordinates.

mtllib Model5Final.mtl
g Model3:default1
v 0.000000 0.285529 0.043646
v 0.000000 0.285529 -0.043646
v 0.034338 0.285529 0.000000
v -0.034338 0.285529 0.000000
v 0.000000 0.285529 0.000000
v 0.000000 1.040408 -0.246070
v -0.193591 1.040408 0.000000
v 0.000000 1.040408 0.246070
v 0.193591 1.040408 0.000000
v 0.000000 1.235539 -0.299611
v -0.235713 1.235539 0.000000
v 0.000000 1.235539 0.299611
v 0.235713 1.235539 0.000000
v 0.000000 1.430669 -0.353152
v -0.277836 1.430669 0.000000
v 0.000000 1.430669 0.353152
v 0.277836 1.430669 0.000000
v 0.000000 1.625799 -0.406693
v -0.319958 1.625799 0.000000
v 0.000000 1.625799 0.406693
v 0.319958 1.625799 0.000000
v 0.000000 1.820929 -0.460234
v -0.362080 1.820929 0.000000
v 0.000000 1.820929 0.460234
v 0.362080 1.820929 0.000000
v 0.000000 2.016059 -0.513776
v -0.404203 2.016059 0.000000
v 0.000000 2.016059 0.513776
v 0.404203 2.016059 0.000000
v 0.000000 2.211190 -0.567317
v -0.446325 2.211190 0.000000
v 0.000000 2.211190 0.567317
v 0.446325 2.211190 0.000000
v 0.000000 2.406320 -0.620858
v -0.488448 2.406320 0.000000
v 0.000000 2.406320 0.620858
v 0.488448 2.406320 0.000000
v 0.000000 2.601450 -0.674399
v -0.530570 2.601450 0.000000
v 0.000000 2.601450 0.674399
v 0.530570 2.601450 0.000000
v 0.000000 2.796580 -0.727940
v -0.572692 2.796580 0.000000
v 0.000000 2.796580 0.727940
v 0.572692 2.796580 0.000000
v -0.000408 3.563921 0.000000
v 0.544048 3.260662 0.000000
v -0.361636 3.231167 0.000000
v -0.003606 3.229455 0.456328
v -0.004118 3.231833 -0.456328
v 0.000000 2.991710 0.422318
v 0.000000 3.239023 0.422318
v 0.000000 3.239023 -0.417914
v 0.000000 2.991710 -0.417914
v 0.226889 3.239023 0.002390
v 0.226889 2.989314 0.002390
v 0.614815 2.990825 0.000000
v 0.000000 2.991710 -0.417914
v 0.000000 2.991710 0.000000
v 0.614815 2.990825 0.000000
v 0.000000 2.991710 0.000000
v 0.000000 2.991710 0.422318
v 0.000000 2.991710 -0.781481
v 0.000000 3.249519 -0.417914
v 0.614815 2.990825 0.000000
v 0.614815 2.990825 0.000000
v 0.000000 3.245349 0.422318
v 0.000000 2.991710 0.781481
v -0.614815 2.991710 0.000000
v 0.000000 3.544388 0.000000
v 0.000000 2.991710 -0.781481
v 0.000000 2.991710 0.781481
v 0.000000 3.544388 0.000000
v -0.614815 2.991710 0.000000
v 0.000000 2.991710 -0.417914
v 0.614815 2.990825 0.000000
v 0.000000 3.249519 -0.417914
v 0.614815 2.990825 0.000000
v 0.000000 2.991710 0.422318
v 0.000000 3.245349 0.422318
vt 0.078443 0.014110
vt 0.071623 0.008668
vt 0.078539 0.000000
vt 0.064803 0.003227
vt 0.064706 0.017337
vt 0.402918 0.000000
vt 0.417028 0.000000
vt 0.442050 0.194418
vt 0.362499 0.194419
vt 0.145692 0.194415
vt 0.066141 0.194421
vt 0.091147 0.000001
vt 0.105257 0.000000
vt 0.934357 0.285574
vt 0.854806 0.285490
vt 0.895433 0.091114
vt 0.909544 0.091129
vt 0.601700 0.000014
vt 0.615810 0.000000
vt 0.656420 0.194379
vt 0.576869 0.194456
vt 0.448668 0.244705
vt 0.351808 0.244706
vt 0.156387 0.244702
vt 0.059527 0.244708
vt 0.940920 0.335868
vt 0.844061 0.335765
vt 0.667160 0.244656
vt 0.570300 0.244749
vt 0.455286 0.294992
vt 0.341117 0.294993
vt 0.167082 0.294988
vt 0.052913 0.294996
vt 0.947485 0.386162
vt 0.833316 0.386041
vt 0.677900 0.294932
vt 0.563731 0.295043
vt 0.461904 0.345279
vt 0.330426 0.345280
vt 0.177777 0.345275
vt 0.046299 0.345283
vt 0.954049 0.436456
vt 0.822571 0.436317
vt 0.688640 0.345209
vt 0.557162 0.345336
vt 0.468522 0.395566
vt 0.319735 0.395568
vt 0.188472 0.395561
vt 0.039685 0.395571
vt 0.960613 0.486750
vt 0.811827 0.486593
vt 0.699381 0.395486
vt 0.550594 0.395629
vt 0.475141 0.445853
vt 0.309044 0.445855
vt 0.199167 0.445847
vt 0.033071 0.445858
vt 0.967178 0.537044
vt 0.801082 0.536868
vt 0.710121 0.445762
vt 0.544025 0.445923
vt 0.481759 0.496140
vt 0.298354 0.496142
vt 0.209862 0.496134
vt 0.026457 0.496146
vt 0.973742 0.587338
vt 0.790337 0.587144
vt 0.720861 0.496039
vt 0.537456 0.496217
vt 0.488377 0.546427
vt 0.287663 0.546429
vt 0.220557 0.546420
vt 0.019842 0.546433
vt 0.980307 0.637632
vt 0.779593 0.637420
vt 0.731601 0.546316
vt 0.530887 0.546510
vt 0.494995 0.596714
vt 0.276972 0.596717
vt 0.231251 0.596706
vt 0.013228 0.596721
vt 0.986871 0.687926
vt 0.768848 0.687696
vt 0.742342 0.596593
vt 0.524318 0.596803
vt 0.501613 0.647001
vt 0.266281 0.647004
vt 0.241946 0.646993
vt 0.006614 0.647008
vt 0.993435 0.738220
vt 0.758103 0.737971
vt 0.753082 0.646869
vt 0.517749 0.647097
vt 0.430297 0.077950
vt 0.551083 0.000000
vt 0.550272 0.181293
vt 0.657486 0.181368
vt 0.656770 0.000000
vt 0.777245 0.077775
vt 0.142354 0.177794
vt 0.291221 0.000000
vt 0.323648 0.178447
vt 0.344643 0.811544
vt 0.197354 0.810795
vt 0.254620 0.699924
vt 0.832338 0.018295
vt 0.884939 0.131454
vt 0.737653 0.126462
vt 0.147123 0.030500
vt 0.465886 0.847003
vt 0.465897 0.784166
vt 0.587170 0.783579
vt 0.587159 0.847024
vt 0.708528 0.784209
vt 0.708516 0.847046
vt 0.874453 0.131177
vt 0.718241 0.237360
vt 0.718241 0.131177
vt 0.321213 0.285181
vt 0.165001 0.285181
vt 0.165001 0.177879
vt 0.763822 0.697146
vt 0.691287 0.784110
vt 0.511180 0.697168
vt 1.000000 0.788292
vt 0.819007 0.873963
vt 0.747359 0.788247
vt 0.508232 0.697287
vt 0.411646 0.883815
vt 0.255590 0.697291
vt 0.252641 0.697279
vt 0.096601 0.883815
vt 0.000000 0.697296
vt 0.469406 0.265496
vt 0.430297 0.080705
vt 0.533507 0.252010
vt 0.000138 0.189639
vt 0.000000 0.000123
vt 0.064444 0.000000
vn 0.000000 -1.000000 0.000000
vn 0.000000 -1.000000 0.000000
vn 0.000000 -1.000000 0.000000
vn 0.000000 -1.000000 0.000000
vn 0.000000 -1.000000 0.000000
vn 0.000000 -1.000000 0.000000
vn 0.000000 -1.000000 0.000000
vn 0.000000 -1.000000 0.000000
vn 0.000000 -1.000000 0.000000
vn 0.000000 -1.000000 0.000000
vn 0.000000 -1.000000 0.000000
vn 0.000000 -1.000000 0.000000
vn -0.775344 -0.163571 -0.609989
vn -0.775344 -0.163571 -0.609989
vn -0.775344 -0.163571 -0.609989
vn -0.775344 -0.163571 -0.609989
vn -0.775344 -0.163571 0.609989
vn -0.775344 -0.163571 0.609989
vn -0.775344 -0.163571 0.609989
vn -0.775344 -0.163571 0.609989
vn 0.775344 -0.163571 0.609989
vn 0.775344 -0.163571 0.609989
vn 0.775344 -0.163571 0.609989
vn 0.775344 -0.163571 0.609989
vn 0.775344 -0.163571 -0.609989
vn 0.775344 -0.163571 -0.609989
vn 0.775344 -0.163571 -0.609989
vn 0.775344 -0.163571 -0.609989
vn -0.774858 -0.167266 -0.609605
vn -0.774858 -0.167266 -0.609605
vn -0.774858 -0.167266 -0.609605
vn -0.774858 -0.167266 -0.609605
vn -0.774858 -0.167266 0.609605
vn -0.774858 -0.167266 0.609605
vn -0.774858 -0.167266 0.609605
vn -0.774858 -0.167266 0.609605
vn 0.774858 -0.167266 0.609605
vn 0.774858 -0.167266 0.609605
vn 0.774858 -0.167266 0.609605
vn 0.774858 -0.167266 0.609605
vn 0.774858 -0.167266 -0.609605
vn 0.774858 -0.167266 -0.609605
vn 0.774858 -0.167266 -0.609605
vn 0.774858 -0.167266 -0.609605
vn -0.774857 -0.167268 -0.609604
vn -0.774857 -0.167268 -0.609604
vn -0.774857 -0.167268 -0.609604
vn -0.774857 -0.167268 -0.609604
vn -0.774857 -0.167268 0.609604
vn -0.774857 -0.167268 0.609604
vn -0.774857 -0.167268 0.609604
vn -0.774857 -0.167268 0.609604
vn 0.774857 -0.167268 0.609604
vn 0.774857 -0.167268 0.609604
vn 0.774857 -0.167268 0.609604
vn 0.774857 -0.167268 0.609604
vn 0.774857 -0.167268 -0.609604
vn 0.774857 -0.167268 -0.609604
vn 0.774857 -0.167268 -0.609604
vn 0.774857 -0.167268 -0.609604
vn -0.774858 -0.167267 -0.609605
vn -0.774858 -0.167266 -0.609605
vn -0.774858 -0.167266 -0.609605
vn -0.774858 -0.167266 -0.609605
vn -0.774858 -0.167266 0.609605
vn -0.774858 -0.167266 0.609605
vn -0.774858 -0.167266 0.609605
vn -0.774858 -0.167267 0.609605
vn 0.774858 -0.167266 0.609605
vn 0.774858 -0.167266 0.609605
vn 0.774858 -0.167266 0.609605
vn 0.774858 -0.167266 0.609605
vn 0.774858 -0.167266 -0.609605
vn 0.774858 -0.167266 -0.609605
vn 0.774858 -0.167266 -0.609605
vn 0.774858 -0.167266 -0.609605
vn -0.774858 -0.167266 -0.609605
vn -0.774858 -0.167266 -0.609604
vn -0.774858 -0.167266 -0.609604
vn -0.774858 -0.167266 -0.609604
vn -0.774858 -0.167266 0.609604
vn -0.774858 -0.167266 0.609604
vn -0.774858 -0.167266 0.609604
vn -0.774858 -0.167266 0.609605
vn 0.774858 -0.167266 0.609604
vn 0.774858 -0.167266 0.609604
vn 0.774858 -0.167266 0.609604
vn 0.774858 -0.167266 0.609604
vn 0.774858 -0.167266 -0.609604
vn 0.774858 -0.167266 -0.609604
vn 0.774858 -0.167266 -0.609604
vn 0.774858 -0.167266 -0.609604
vn -0.774858 -0.167270 -0.609604
vn -0.774858 -0.167270 -0.609604
vn -0.774858 -0.167270 -0.609604
vn -0.774858 -0.167270 -0.609604
vn -0.774858 -0.167270 0.609604
vn -0.774858 -0.167270 0.609604
vn -0.774858 -0.167270 0.609604
vn -0.774858 -0.167270 0.609604
vn 0.774858 -0.167270 0.609604
vn 0.774858 -0.167270 0.609604
vn 0.774857 -0.167270 0.609604
vn 0.774858 -0.167270 0.609604
vn 0.774858 -0.167270 -0.609604
vn 0.774857 -0.167270 -0.609604
vn 0.774858 -0.167270 -0.609604
vn 0.774858 -0.167270 -0.609604
vn -0.774858 -0.167266 -0.609604
vn -0.774858 -0.167266 -0.609604
vn -0.774858 -0.167266 -0.609604
vn -0.774858 -0.167266 -0.609604
vn -0.774858 -0.167266 0.609604
vn -0.774858 -0.167266 0.609604
vn -0.774858 -0.167266 0.609604
vn -0.774858 -0.167266 0.609604
vn 0.774858 -0.167266 0.609604
vn 0.774858 -0.167266 0.609604
vn 0.774858 -0.167266 0.609604
vn 0.774858 -0.167266 0.609604
vn 0.774858 -0.167266 -0.609604
vn 0.774858 -0.167266 -0.609604
vn 0.774858 -0.167266 -0.609604
vn 0.774858 -0.167266 -0.609604
vn -0.774858 -0.167268 -0.609604
vn -0.774858 -0.167268 -0.609604
vn -0.774858 -0.167268 -0.609604
vn -0.774858 -0.167268 -0.609604
vn -0.774858 -0.167268 0.609604
vn -0.774858 -0.167268 0.609604
vn -0.774858 -0.167268 0.609604
vn -0.774858 -0.167268 0.609604
vn 0.774858 -0.167268 0.609604
vn 0.774858 -0.167268 0.609604
vn 0.774858 -0.167268 0.609604
vn 0.774858 -0.167268 0.609604
vn 0.774858 -0.167268 -0.609604
vn 0.774858 -0.167268 -0.609604
vn 0.774858 -0.167268 -0.609604
vn 0.774858 -0.167268 -0.609604
vn -0.774858 -0.167266 -0.609604
vn -0.774858 -0.167266 -0.609604
vn -0.774858 -0.167266 -0.609604
vn -0.774858 -0.167266 -0.609604
vn -0.774858 -0.167266 0.609604
vn -0.774858 -0.167266 0.609604
vn -0.774858 -0.167266 0.609604
vn -0.774858 -0.167266 0.609604
vn 0.774858 -0.167266 0.609604
vn 0.774858 -0.167266 0.609604
vn 0.774858 -0.167266 0.609604
vn 0.774858 -0.167266 0.609604
vn 0.774858 -0.167266 -0.609604
vn 0.774858 -0.167266 -0.609604
vn 0.774858 -0.167266 -0.609604
vn 0.774858 -0.167266 -0.609604
vn -0.774858 -0.167266 -0.609604
vn -0.774858 -0.167266 -0.609604
vn -0.774858 -0.167266 -0.609604
vn -0.774858 -0.167266 -0.609604
vn -0.774858 -0.167266 0.609603
vn -0.774858 -0.167266 0.609603
vn -0.774858 -0.167266 0.609603
vn -0.774858 -0.167266 0.609603
vn 0.774858 -0.167266 0.609604
vn 0.774858 -0.167266 0.609604
vn 0.774858 -0.167266 0.609604
vn 0.774858 -0.167266 0.609604
vn 0.774858 -0.167266 -0.609604
vn 0.774858 -0.167266 -0.609604
vn 0.774858 -0.167266 -0.609604
vn 0.774858 -0.167266 -0.609604
vn 0.409157 0.734580 0.541278
vn 0.409157 0.734580 0.541278
vn 0.409157 0.734581 0.541278
vn 0.409903 0.735919 -0.538890
vn 0.409903 0.735919 -0.538890
vn 0.409903 0.735919 -0.538890
vn 0.054704 -0.998499 -0.002632
vn 0.054704 -0.998499 -0.002632
vn 0.054704 -0.998499 -0.002632
vn -0.598706 0.649937 -0.468116
vn -0.598706 0.649938 -0.468116
vn -0.598706 0.649938 -0.468116
vn -0.597566 0.648700 0.471278
vn -0.597566 0.648701 0.471278
vn -0.597566 0.648700 0.471278
vn -0.001462 -0.999996 -0.002606
vn -0.001462 -0.999996 -0.002606
vn -0.001462 -0.999996 -0.002606
vn 0.879793 0.000000 0.475357
vn 0.879793 0.000000 0.475357
vn 0.879793 0.000000 0.475357
vn 0.879793 0.000000 0.475357
vn 0.879971 0.000000 -0.475027
vn 0.879971 0.000000 -0.475027
vn 0.879971 0.000000 -0.475027
vn 0.879971 0.000000 -0.475027
vn 0.001439 0.999999 0.000000
vn 0.001439 0.999999 0.000000
vn 0.001439 0.999999 0.000000
vn 0.001439 0.999999 0.000000
vn 0.001439 0.999999 0.000000
vn 0.001439 0.999999 0.000000
vn 0.592978 0.656837 -0.465770
vn 0.592978 0.656837 -0.465770
vn 0.592978 0.656837 -0.465770
vn 0.591925 0.658374 0.464940
vn 0.591925 0.658374 0.464940
vn 0.591925 0.658374 0.464940
vn -0.591680 0.658202 -0.465493
vn -0.591680 0.658202 -0.465493
vn -0.591680 0.658202 -0.465493
vn -0.591680 0.658202 0.465493
vn -0.591680 0.658202 0.465493
vn -0.591680 0.658202 0.465493
vn -0.562163 0.000000 0.827027
vn -0.562163 0.000000 0.827027
vn -0.562163 0.000000 0.827027
vn -0.566195 0.000000 -0.824272
vn -0.566195 0.000000 -0.824272
vn -0.566195 0.000000 -0.824272
vn 0.774760 -0.167641 -0.609625
vn 0.774760 -0.167641 -0.609625
vn 0.774760 -0.167641 -0.609625
vn 0.774760 -0.167641 -0.609625
vn 0.774760 -0.167641 0.609625
vn 0.774760 -0.167641 0.609625
vn 0.774760 -0.167641 0.609625
vn 0.774760 -0.167641 0.609625
vn -0.774857 -0.167268 0.609604
vn -0.774858 -0.167268 0.609604
vn -0.774858 -0.167268 0.609604
vn -0.774858 -0.167268 0.609604
vn -0.774857 -0.167268 -0.609604
vn -0.774858 -0.167268 -0.609604
vn -0.774857 -0.167268 -0.609604
vn -0.774858 -0.167268 -0.609604
s off
g Model3:pCube5 Model3:pCube6 Model3:polySurface4
usemtl Model3:lambert3SG
f 3/1/1 5/2/2 2/3/3
f 2/3/4 5/2/5 4/4/6
f 1/5/7 5/2/8 3/1/9
f 4/4/10 5/2/11 1/5/12
f 2/6/13 4/7/14 7/8/15 6/9/16
f 8/10/17 7/11/18 4/12/19 1/13/20
f 9/14/21 8/15/22 1/16/23 3/17/24
f 3/18/25 2/19/26 6/20/27 9/21/28
f 6/9/29 7/8/30 11/22/31 10/23/32
f 12/24/33 11/25/34 7/11/35 8/10/36
f 13/26/37 12/27/38 8/15/39 9/14/40
f 9/21/41 6/20/42 10/28/43 13/29/44
f 10/23/45 11/22/46 15/30/47 14/31/48
f 16/32/49 15/33/50 11/25/51 12/24/52
f 17/34/53 16/35/54 12/27/55 13/26/56
f 13/29/57 10/28/58 14/36/59 17/37/60
f 14/31/61 15/30/62 19/38/63 18/39/64
f 20/40/65 19/41/66 15/33/67 16/32/68
f 21/42/69 20/43/70 16/35/71 17/34/72
f 17/37/73 14/36/74 18/44/75 21/45/76
f 18/39/77 19/38/78 23/46/79 22/47/80
f 24/48/81 23/49/82 19/41/83 20/40/84
f 25/50/85 24/51/86 20/43/87 21/42/88
f 21/45/89 18/44/90 22/52/91 25/53/92
f 22/47/93 23/46/94 27/54/95 26/55/96
f 28/56/97 27/57/98 23/49/99 24/48/100
f 29/58/101 28/59/102 24/51/103 25/50/104
f 25/53/105 22/52/106 26/60/107 29/61/108
f 26/55/109 27/54/110 31/62/111 30/63/112
f 32/64/113 31/65/114 27/57/115 28/56/116
f 33/66/117 32/67/118 28/59/119 29/58/120
f 29/61/121 26/60/122 30/68/123 33/69/124
f 30/63/125 31/62/126 35/70/127 34/71/128
f 36/72/129 35/73/130 31/65/131 32/64/132
f 37/74/133 36/75/134 32/67/135 33/66/136
f 33/69/137 30/68/138 34/76/139 37/77/140
f 34/71/141 35/70/142 39/78/143 38/79/144
f 40/80/145 39/81/146 35/73/147 36/72/148
f 41/82/149 40/83/150 36/75/151 37/74/152
f 37/77/153 34/76/154 38/84/155 41/85/156
f 38/79/157 39/78/158 43/86/159 42/87/160
f 44/88/161 43/89/162 39/81/163 40/80/164
f 45/90/165 44/91/166 40/83/167 41/82/168
f 41/85/169 38/84/170 42/92/171 45/93/172
g Model3:pCube5 Model3:polySurface2 Model3:polySurface4
f 46/94/173 49/95/174 47/96/175
f 47/97/176 50/98/177 46/99/178
f 49/100/179 50/101/180 47/102/181
f 50/103/182 48/104/183 46/105/184
f 46/106/185 48/107/186 49/108/187
f 48/109/188 50/101/189 49/100/190
g Model3:pCube5 Model3:polySurface3 Model3:polySurface4
f 52/110/191 51/111/192 56/112/193 55/113/194
f 54/114/195 53/115/196 55/113/197 56/112/198
g Model3:pCube5 Model3:pCube6 Model3:polySurface4
f 57/116/199 58/117/200 59/118/201
f 60/119/202 61/120/203 62/121/204
f 63/122/205 64/123/206 65/124/207
f 66/125/208 67/126/209 68/127/210
f 69/128/211 70/129/212 71/130/213
f 72/131/214 73/132/215 74/133/216
f 75/134/217 76/135/218 77/136/219
f 78/137/220 79/138/221 80/139/222
f 45/93/223 42/92/224 63/122/225 65/124/226
f 44/91/227 45/90/228 66/125/229 68/127/230
f 43/89/231 44/88/232 72/131/233 74/133/234
f 42/87/235 43/86/236 69/128/237 71/130/238
